<?xml version="1.0" encoding="UTF-8"?>
<svg xmlns="http://www.w3.org/2000/svg" viewBox="0 0 140 140"><polygon points="35,45 25,10 55,35" fill="#FFD6B0" stroke="#5B4034" stroke-width="2.5" stroke-linejoin="round"/><polygon points="105,45 115,10 85,35" fill="#FFD6B0" stroke="#5B4034" stroke-width="2.5" stroke-linejoin="round"/><polygon points="37,38 32,20 47,33" fill="#FFD9E6"/><polygon points="103,38 108,20 93,33" fill="#FFD9E6"/><circle cx="70" cy="78" r="48" fill="#FFD6B0" stroke="#5B4034" stroke-width="2.5"/><circle cx="38" cy="88" r="9" fill="#FF9EB8" fill-opacity="0.7"/><circle cx="102" cy="88" r="9" fill="#FF9EB8" fill-opacity="0.7"/><circle cx="53" cy="75" r="5.5" fill="#2B2B2B"/><circle cx="87" cy="75" r="5.5" fill="#2B2B2B"/><circle cx="55" cy="73" r="1.6" fill="#fff"/><circle cx="89" cy="73" r="1.6" fill="#fff"/><polygon points="70,86 65,92 75,92" fill="#D9607A"/><path d="M70,92 Q64,98 58,93" fill="none" stroke="#5B4034" stroke-width="2" stroke-linecap="round"/><path d="M70,92 Q76,98 82,93" fill="none" stroke="#5B4034" stroke-width="2" stroke-linecap="round"/><line x1="34" y1="84" x2="12" y2="81" stroke="#5B4034" stroke-width="1.4" stroke-linecap="round" stroke-opacity="0.55"/><line x1="34" y1="90" x2="12" y2="90" stroke="#5B4034" stroke-width="1.4" stroke-linecap="round" stroke-opacity="0.55"/><line x1="34" y1="96" x2="12" y2="99" stroke="#5B4034" stroke-width="1.4" stroke-linecap="round" stroke-opacity="0.55"/><line x1="106" y1="84" x2="128" y2="81" stroke="#5B4034" stroke-width="1.4" stroke-linecap="round" stroke-opacity="0.55"/><line x1="106" y1="90" x2="128" y2="90" stroke="#5B4034" stroke-width="1.4" stroke-linecap="round" stroke-opacity="0.55"/><line x1="106" y1="96" x2="128" y2="99" stroke="#5B4034" stroke-width="1.4" stroke-linecap="round" stroke-opacity="0.55"/><polygon points="95,30 112,20 112,40" fill="#E85D9A" stroke="#5B4034" stroke-width="1.8"/><polygon points="95,30 78,20 78,40" fill="#E85D9A" stroke="#5B4034" stroke-width="1.8"/><circle cx="95" cy="30" r="5" fill="#C43C79"/></svg>
